<svg height='100px' width='100px'  fill="#FFFFFF" xmlns="http://www.w3.org/2000/svg" xmlns:xlink="http://www.w3.org/1999/xlink" version="1.1" x="0px" y="0px" viewBox="0 0 100 100" enable-background="new 0 0 100 100" xml:space="preserve"><path d="M80.437,43.109c-6.663-0.701-12.609-5.023-15.195-11.438c-4.021,2.1-10.224,2.3-12.81,2.259  c-4.852-0.076-20.12-3.241-27.357-0.626c-4.746-2.979-10.807-0.654-19.813-23.921C3.017,36.872,15.825,28.332,20.474,37.773  c1.048,2.127-5.762,3.812-2.228,17.369c2.373,9.1-4.989,13.896-3.535,16.413c2.324,4.022-1.259,14.087,5.424,14.14  c7.94-0.046-0.605-4.021,0.468-13.548c0.665-5.896,0.064,13.017,7.528,9.24c5.513-2.905-2.317-3.106-2.768-5.326  c-2.032-10.071,8.813-13.268,9.394-24.213c6.778-3,13.992,10.364,27.066,9.394c4.914,5.615-1.331,21.156,1.936,22.031  c2.906,0.779-0.942,9.73,8.572,6.73c4.703-1.482-1.356-3.005-2.906-6.392c-0.135-0.466,9.49,1.646,0.484-5.181  C70.95,49.862,80.538,57.489,80.367,43.23C80.392,43.19,80.414,43.149,80.437,43.109z"></path><path d="M89.615,21.635c0-10.339-15.461-6.121-18.399-1.211c-2.081,3.479-4.55,2.755-2.324,6.635  c-0.133,1.112-0.595,2.047-1.286,2.833c2.141,6.161,7.867,10.231,14.166,10.468c1.623-4.07,1.151-6.643,3.439-8.411  c11.596,0.339,8.908-4.116,8.908-4.116C97.605,23.854,89.621,22.698,89.615,21.635z"></path></svg>